<svg width="694" height="712" viewBox="0 0 694 712" fill="none" xmlns="http://www.w3.org/2000/svg">
<path fill-rule="evenodd" clip-rule="evenodd" d="M120.014 407.608C99.5569 352.771 43.1566 313.874 41.5091 255.369C39.7248 192.001 63.0679 124.926 110.882 83.303C157.496 42.7235 225.141 43.6848 286.913 41.7377C341.112 40.0294 395.043 46.6689 442.53 72.8495C488.626 98.2635 525.69 137.63 547.631 185.477C568.833 231.715 566.52 282.961 562.115 333.637C557.408 387.787 549.836 441.093 521.387 487.408C486.727 543.833 446.24 601.812 383.814 623.906C316.072 647.882 229.513 655.941 173.944 610.378C118.504 564.92 145.072 474.781 120.014 407.608Z" fill="#D12E42"/>
</svg>
