<svg width="1291" height="1166" viewBox="0 0 1291 1166" fill="none" xmlns="http://www.w3.org/2000/svg">
	<mask id="mask0" mask-type="alpha" maskUnits="userSpaceOnUse" x="0" y="-305" width="1543" height="1471">
		<path fill-rule="evenodd" clip-rule="evenodd" d="M450.45 58.0798C633.111 -93.3562 1298.08 10.958 1423.67 343.672C1569.46 729.895 706.752 947.707 501.169 927.767C295.592 907.822 276.631 854.958 402.44 625.192C528.254 395.432 267.79 209.516 450.45 58.0798Z" fill="white"/>
	</mask>
	<g mask="url(#mask0)">
	<path fill-rule="evenodd" clip-rule="evenodd" d="M1209.95 -6.39153C1201.87 -1.27135 1189.02 -7.03853 1183.89 -15.1462C1178.75 -23.2609 1181.15 -33.9894 1189.24 -39.1096C1197.33 -44.2342 1213.2 -45.0737 1218.34 -36.959C1223.47 -28.8513 1218.05 -11.5161 1209.95 -6.39153Z" fill="#F0EDF2"/>
	<path fill-rule="evenodd" clip-rule="evenodd" d="M1252.81 61.2935C1244.72 66.4137 1231.88 60.6535 1226.74 52.5388C1221.61 44.4311 1224.01 33.6956 1232.09 28.5754C1240.19 23.4508 1256.06 22.6183 1261.19 30.726C1266.33 38.8407 1260.9 56.1689 1252.81 61.2935Z" fill="#F0EDF2"/>
	<path fill-rule="evenodd" clip-rule="evenodd" d="M1295.67 128.986C1287.58 134.107 1274.74 128.346 1269.6 120.232C1264.47 112.124 1266.87 101.388 1274.95 96.2683C1283.05 91.1437 1298.92 90.3112 1304.05 98.4189C1309.19 106.534 1303.76 123.862 1295.67 128.986Z" fill="#F0EDF2"/>
	<path fill-rule="evenodd" clip-rule="evenodd" d="M1147.94 32.8704C1139.86 37.9906 1127.01 32.2234 1121.88 24.1157C1116.74 16.001 1119.14 5.2725 1127.23 0.152319C1135.32 -4.97229 1151.19 -5.81178 1156.33 2.30291C1161.46 10.4106 1156.04 27.7458 1147.94 32.8704Z" fill="#F0EDF2"/>
	<path fill-rule="evenodd" clip-rule="evenodd" d="M1233.66 168.248C1225.57 173.369 1212.73 167.608 1207.59 159.494C1202.46 151.386 1204.86 140.651 1212.94 135.53C1221.04 130.406 1236.91 129.573 1242.05 137.681C1247.18 145.796 1241.75 163.124 1233.66 168.248Z" fill="#F0EDF2"/>
	<path fill-rule="evenodd" clip-rule="evenodd" d="M1276.53 235.948C1268.44 241.068 1255.59 235.301 1250.46 227.194C1245.32 219.079 1247.72 208.35 1255.81 203.23C1263.9 198.106 1279.77 197.266 1284.91 205.381C1290.04 213.488 1284.62 230.824 1276.53 235.948Z" fill="#F0EDF2"/>
	<path fill-rule="evenodd" clip-rule="evenodd" d="M1319.39 303.64C1311.3 308.761 1298.45 302.993 1293.32 294.886C1288.18 286.771 1290.58 276.043 1298.67 270.922C1306.76 265.798 1322.63 264.958 1327.77 273.073C1332.9 281.181 1327.48 298.516 1319.39 303.64Z" fill="#F0EDF2"/>
	<path fill-rule="evenodd" clip-rule="evenodd" d="M1043.07 4.44471C1034.98 9.5649 1022.13 3.79771 1017 -4.30998C1011.86 -12.4247 1014.26 -23.1532 1022.35 -28.2733C1030.44 -33.3979 1046.31 -34.2374 1051.45 -26.1227C1056.59 -18.0151 1051.16 -0.679894 1043.07 4.44471Z" fill="#F0EDF2"/>
	<path fill-rule="evenodd" clip-rule="evenodd" d="M1128.78 139.823C1120.7 144.943 1107.86 139.183 1102.72 131.068C1097.58 122.96 1099.98 112.225 1108.07 107.105C1116.16 101.98 1132.03 101.148 1137.17 109.255C1142.31 117.37 1136.88 134.698 1128.78 139.823Z" fill="#F0EDF2"/>
	<path fill-rule="evenodd" clip-rule="evenodd" d="M1171.64 207.515C1163.56 212.635 1150.72 206.875 1145.58 198.76C1140.44 190.653 1142.84 179.917 1150.93 174.797C1159.02 169.672 1174.9 168.84 1180.03 176.948C1185.17 185.062 1179.74 202.391 1171.64 207.515Z" fill="#F0EDF2"/>
	<path fill-rule="evenodd" clip-rule="evenodd" d="M1214.51 275.214C1206.42 280.335 1193.58 274.567 1188.44 266.46C1183.31 258.345 1185.71 247.617 1193.79 242.496C1201.89 237.372 1217.76 236.532 1222.89 244.647C1228.03 252.755 1222.6 270.09 1214.51 275.214Z" fill="#F0EDF2"/>
	<path fill-rule="evenodd" clip-rule="evenodd" d="M1257.37 342.907C1249.28 348.027 1236.44 342.26 1231.3 334.152C1226.17 326.038 1228.57 315.309 1236.65 310.189C1244.75 305.064 1260.62 304.225 1265.75 312.34C1270.89 320.447 1265.46 337.782 1257.37 342.907Z" fill="#F0EDF2"/>
	<path fill-rule="evenodd" clip-rule="evenodd" d="M1300.23 410.6C1292.14 415.72 1279.3 409.953 1274.16 401.845C1269.03 393.73 1271.43 383.002 1279.51 377.882C1287.61 372.757 1303.48 371.918 1308.61 380.032C1313.75 388.14 1308.32 405.475 1300.23 410.6Z" fill="#F0EDF2"/>
	<path fill-rule="evenodd" clip-rule="evenodd" d="M1023.92 111.399C1015.83 116.519 1002.99 110.752 997.852 102.644C992.714 94.5297 995.116 83.8012 1003.2 78.6811C1011.3 73.5565 1027.16 72.717 1032.3 80.8317C1037.44 88.9393 1032.01 106.275 1023.92 111.399Z" fill="#F0EDF2"/>
	<path fill-rule="evenodd" clip-rule="evenodd" d="M1066.77 179.085C1058.69 184.205 1045.85 178.445 1040.71 170.33C1035.58 162.223 1037.97 151.487 1046.06 146.367C1054.15 141.242 1070.03 140.41 1075.16 148.518C1080.3 156.632 1074.87 173.96 1066.77 179.085Z" fill="#F0EDF2"/>
	<path fill-rule="evenodd" clip-rule="evenodd" d="M1109.63 246.777C1101.55 251.897 1088.71 246.137 1083.57 238.022C1078.44 229.915 1080.83 219.179 1088.92 214.059C1097.01 208.935 1112.89 208.102 1118.02 216.21C1123.16 224.324 1117.73 241.653 1109.63 246.777Z" fill="#F0EDF2"/>
	<path fill-rule="evenodd" clip-rule="evenodd" d="M1152.5 314.477C1144.41 319.597 1131.57 313.83 1126.43 305.722C1121.3 297.607 1123.7 286.879 1131.78 281.759C1139.88 276.634 1155.75 275.795 1160.88 283.909C1166.02 292.017 1160.59 309.352 1152.5 314.477Z" fill="#F0EDF2"/>
	<path fill-rule="evenodd" clip-rule="evenodd" d="M1195.36 382.169C1187.27 387.289 1174.43 381.522 1169.29 373.414C1164.16 365.3 1166.56 354.571 1174.64 349.451C1182.74 344.326 1198.61 343.487 1203.74 351.601C1208.88 359.709 1203.45 377.044 1195.36 382.169Z" fill="#F0EDF2"/>
	<path fill-rule="evenodd" clip-rule="evenodd" d="M1238.22 449.862C1230.13 454.982 1217.29 449.215 1212.15 441.107C1207.02 432.992 1209.42 422.264 1217.5 417.144C1225.6 412.019 1241.47 411.18 1246.6 419.294C1251.74 427.402 1246.31 444.737 1238.22 449.862Z" fill="#F0EDF2"/>
	<path fill-rule="evenodd" clip-rule="evenodd" d="M1281.08 517.555C1272.99 522.675 1260.15 516.915 1255.02 508.8C1249.88 500.692 1252.28 489.957 1260.37 484.837C1268.46 479.712 1284.33 478.879 1289.47 486.987C1294.6 495.102 1289.17 512.43 1281.08 517.555Z" fill="#F0EDF2"/>
	<path fill-rule="evenodd" clip-rule="evenodd" d="M1323.94 585.247C1315.85 590.367 1303.01 584.6 1297.88 576.492C1292.74 568.377 1295.14 557.649 1303.23 552.529C1311.32 547.404 1327.19 546.564 1332.33 554.679C1337.46 562.787 1332.03 580.122 1323.94 585.247Z" fill="#F0EDF2"/>
	<path fill-rule="evenodd" clip-rule="evenodd" d="M919.049 82.9687C910.955 88.0933 898.116 82.3217 892.983 74.214C887.845 66.0993 890.239 55.3753 898.333 50.2506C906.426 45.126 922.295 44.2865 927.433 52.4012C932.567 60.5089 927.142 77.8441 919.049 82.9687Z" fill="#F0EDF2"/>
	<path fill-rule="evenodd" clip-rule="evenodd" d="M961.909 150.661C953.815 155.786 940.977 150.014 935.843 141.906C930.705 133.792 933.099 123.068 941.193 117.943C949.287 112.818 965.156 111.979 970.294 120.094C975.427 128.201 970.003 145.536 961.909 150.661Z" fill="#F0EDF2"/>
	<path fill-rule="evenodd" clip-rule="evenodd" d="M1004.76 218.347C996.671 223.471 983.837 217.707 978.699 209.592C973.566 201.484 975.955 190.753 984.049 185.629C992.143 180.504 1008.02 179.671 1013.15 187.779C1018.29 195.894 1012.86 213.222 1004.76 218.347Z" fill="#F0EDF2"/>
	<path fill-rule="evenodd" clip-rule="evenodd" d="M1047.63 286.039C1039.53 291.164 1026.7 285.399 1021.56 277.284C1016.43 269.177 1018.82 258.446 1026.91 253.321C1035 248.196 1050.88 247.364 1056.01 255.472C1061.15 263.586 1055.72 280.914 1047.63 286.039Z" fill="#F0EDF2"/>
	<path fill-rule="evenodd" clip-rule="evenodd" d="M1090.49 353.739C1082.4 358.863 1069.56 353.092 1064.42 344.984C1059.29 336.869 1061.68 326.145 1069.77 321.021C1077.87 315.896 1093.74 315.057 1098.87 323.171C1104.01 331.279 1098.58 348.614 1090.49 353.739Z" fill="#F0EDF2"/>
	<path fill-rule="evenodd" clip-rule="evenodd" d="M1133.34 421.436C1125.25 426.56 1112.41 420.789 1107.28 412.681C1102.14 404.566 1104.53 393.842 1112.63 388.718C1120.72 383.593 1136.59 382.754 1141.73 390.868C1146.86 398.976 1141.44 416.311 1133.34 421.436Z" fill="#F0EDF2"/>
	<path fill-rule="evenodd" clip-rule="evenodd" d="M1176.21 489.124C1168.12 494.248 1155.28 488.484 1150.14 480.369C1145.01 472.254 1147.4 461.53 1155.49 456.406C1163.59 451.281 1179.46 450.441 1184.6 458.556C1189.73 466.671 1184.3 483.999 1176.21 489.124Z" fill="#F0EDF2"/>
	<path fill-rule="evenodd" clip-rule="evenodd" d="M1219.07 556.817C1210.98 561.941 1198.14 556.177 1193.01 548.062C1187.87 539.954 1190.26 529.223 1198.36 524.099C1206.45 518.974 1222.32 518.141 1227.46 526.249C1232.59 534.364 1227.17 551.692 1219.07 556.817Z" fill="#F0EDF2"/>
	<path fill-rule="evenodd" clip-rule="evenodd" d="M1261.93 624.509C1253.84 629.633 1241 623.862 1235.87 615.754C1230.73 607.639 1233.12 596.915 1241.22 591.791C1249.31 586.666 1265.18 585.827 1270.32 593.941C1275.45 602.049 1270.03 619.384 1261.93 624.509Z" fill="#F0EDF2"/>
	<path fill-rule="evenodd" clip-rule="evenodd" d="M814.167 54.5352C806.074 59.6598 793.239 53.8952 788.101 45.7805C782.963 37.6658 785.358 26.9418 793.451 21.8172C801.545 16.6926 817.414 15.8531 822.552 23.9678C827.69 32.0825 822.261 49.4106 814.167 54.5352Z" fill="#F0EDF2"/>
	<path fill-rule="evenodd" clip-rule="evenodd" d="M857.032 122.235C848.938 127.359 836.099 121.588 830.966 113.48C825.828 105.365 828.222 94.6412 836.316 89.5166C844.409 84.392 860.278 83.5525 865.416 91.6672C870.55 99.7749 865.125 117.11 857.032 122.235Z" fill="#F0EDF2"/>
	<path fill-rule="evenodd" clip-rule="evenodd" d="M899.886 189.932C891.792 195.057 878.953 189.285 873.82 181.177C868.682 173.063 871.076 162.339 879.17 157.214C887.263 152.089 903.132 151.25 908.27 159.365C913.404 167.472 907.979 184.808 899.886 189.932Z" fill="#F0EDF2"/>
	<path fill-rule="evenodd" clip-rule="evenodd" d="M942.748 257.613C934.655 262.738 921.82 256.973 916.682 248.858C911.549 240.751 913.939 230.019 922.032 224.895C930.126 219.77 945.999 218.938 951.133 227.045C956.271 235.16 950.842 252.488 942.748 257.613Z" fill="#F0EDF2"/>
	<path fill-rule="evenodd" clip-rule="evenodd" d="M985.609 325.305C977.515 330.43 964.681 324.665 959.543 316.551C954.41 308.443 956.8 297.712 964.893 292.587C972.987 287.463 988.86 286.63 993.994 294.738C999.132 302.853 993.703 320.181 985.609 325.305Z" fill="#F0EDF2"/>
	<path fill-rule="evenodd" clip-rule="evenodd" d="M1028.47 393.01C1020.37 398.134 1007.53 392.363 1002.4 384.255C997.263 376.14 999.658 365.416 1007.75 360.292C1015.84 355.167 1031.71 354.327 1036.85 362.442C1041.99 370.55 1036.56 387.885 1028.47 393.01Z" fill="#F0EDF2"/>
	<path fill-rule="evenodd" clip-rule="evenodd" d="M1071.33 460.702C1063.23 465.827 1050.4 460.055 1045.26 451.948C1040.12 443.833 1042.52 433.109 1050.61 427.984C1058.71 422.86 1074.57 422.02 1079.71 430.135C1084.85 438.243 1079.42 455.578 1071.33 460.702Z" fill="#F0EDF2"/>
	<path fill-rule="evenodd" clip-rule="evenodd" d="M1114.19 528.39C1106.1 533.515 1093.26 527.743 1088.13 519.636C1082.99 511.521 1085.39 500.797 1093.48 495.672C1101.57 490.548 1117.44 489.708 1122.58 497.823C1127.71 505.93 1122.29 523.266 1114.19 528.39Z" fill="#F0EDF2"/>
	<path fill-rule="evenodd" clip-rule="evenodd" d="M1157.05 596.087C1148.95 601.212 1136.12 595.447 1130.98 587.332C1125.85 579.225 1128.24 568.494 1136.33 563.369C1144.43 558.245 1160.3 557.412 1165.43 565.52C1170.57 573.634 1165.14 590.963 1157.05 596.087Z" fill="#F0EDF2"/>
	<path fill-rule="evenodd" clip-rule="evenodd" d="M1199.91 663.78C1191.82 668.905 1178.98 663.133 1173.84 655.025C1168.71 646.911 1171.1 636.187 1179.19 631.062C1187.29 625.937 1203.16 625.098 1208.29 633.213C1213.43 641.32 1208 658.655 1199.91 663.78Z" fill="#F0EDF2"/>
	<path fill-rule="evenodd" clip-rule="evenodd" d="M709.298 26.1054C701.204 31.23 688.365 25.4584 683.232 17.3507C678.094 9.23598 680.488 -1.48809 688.582 -6.6127C696.668 -11.7329 712.544 -12.5768 717.682 -4.4621C722.816 3.64558 717.384 20.9852 709.298 26.1054Z" fill="#F0EDF2"/>
	<path fill-rule="evenodd" clip-rule="evenodd" d="M752.158 93.7977C744.064 98.9223 731.23 93.1577 726.092 85.043C720.954 76.9283 723.348 66.2043 731.442 61.0797C739.529 55.9595 755.405 55.1156 760.543 63.2302C765.681 71.3449 760.245 88.6775 752.158 93.7977Z" fill="#F0EDF2"/>
	<path fill-rule="evenodd" clip-rule="evenodd" d="M795.023 161.497C786.929 166.622 774.091 160.85 768.957 152.743C763.819 144.628 766.214 133.904 774.307 128.779C782.394 123.659 798.27 122.815 803.408 130.93C808.541 139.038 803.11 156.377 795.023 161.497Z" fill="#F0EDF2"/>
	<path fill-rule="evenodd" clip-rule="evenodd" d="M837.883 229.19C829.789 234.314 816.951 228.543 811.817 220.435C806.679 212.32 809.073 201.596 817.167 196.471C825.254 191.351 841.13 190.507 846.268 198.622C851.401 206.73 845.97 224.069 837.883 229.19Z" fill="#F0EDF2"/>
	<path fill-rule="evenodd" clip-rule="evenodd" d="M880.739 296.875C872.646 302 859.812 296.235 854.674 288.121C849.54 280.013 851.93 269.282 860.024 264.157C868.11 259.037 883.991 258.2 889.124 266.308C894.262 274.422 888.826 291.755 880.739 296.875Z" fill="#F0EDF2"/>
	<path fill-rule="evenodd" clip-rule="evenodd" d="M923.6 364.568C915.506 369.692 902.672 363.928 897.534 355.813C892.4 347.705 894.79 336.974 902.884 331.849C910.97 326.729 926.851 325.892 931.984 334C937.122 342.115 931.686 359.447 923.6 364.568Z" fill="#F0EDF2"/>
	<path fill-rule="evenodd" clip-rule="evenodd" d="M966.465 432.267C958.371 437.392 945.533 431.62 940.399 423.513C935.261 415.398 937.655 404.674 945.749 399.549C953.836 394.429 969.712 393.585 974.85 401.7C979.983 409.808 974.552 427.147 966.465 432.267Z" fill="#F0EDF2"/>
	<path fill-rule="evenodd" clip-rule="evenodd" d="M1009.32 499.96C1001.23 505.085 988.393 499.313 983.259 491.205C978.121 483.091 980.515 472.367 988.609 467.242C996.696 462.122 1012.57 461.278 1017.71 469.393C1022.84 477.5 1017.41 494.84 1009.32 499.96Z" fill="#F0EDF2"/>
	<path fill-rule="evenodd" clip-rule="evenodd" d="M1052.19 567.652C1044.09 572.777 1031.26 567.012 1026.12 558.898C1020.98 550.783 1023.38 540.059 1031.47 534.934C1039.56 529.814 1055.43 528.97 1060.57 537.085C1065.71 545.199 1060.27 562.532 1052.19 567.652Z" fill="#F0EDF2"/>
	<path fill-rule="evenodd" clip-rule="evenodd" d="M1095.05 635.345C1086.95 640.469 1074.12 634.705 1068.98 626.59C1063.85 618.483 1066.24 607.751 1074.33 602.627C1082.42 597.507 1098.3 596.67 1103.43 604.777C1108.57 612.892 1103.13 630.225 1095.05 635.345Z" fill="#F0EDF2"/>
	<path fill-rule="evenodd" clip-rule="evenodd" d="M1137.91 703.038C1129.81 708.162 1116.97 702.391 1111.84 694.283C1106.7 686.168 1109.1 675.444 1117.19 670.32C1125.28 665.199 1141.15 664.355 1146.29 672.47C1151.42 680.578 1145.99 697.917 1137.91 703.038Z" fill="#F0EDF2"/>
	<path fill-rule="evenodd" clip-rule="evenodd" d="M604.42 -2.32091C596.327 2.8037 583.492 -2.96091 578.354 -11.0756C573.221 -19.1833 575.611 -29.9144 583.704 -35.039C591.791 -40.1591 607.671 -40.9961 612.805 -32.8884C617.943 -24.7737 612.507 -7.44109 604.42 -2.32091Z" fill="#F0EDF2"/>
	<path fill-rule="evenodd" clip-rule="evenodd" d="M647.281 65.3718C639.188 70.4964 626.349 64.7248 621.215 56.6171C616.078 48.5025 618.472 37.7784 626.565 32.6538C634.652 27.5336 650.528 26.6897 655.666 34.8044C660.799 42.9121 655.368 60.2517 647.281 65.3718Z" fill="#F0EDF2"/>
	<path fill-rule="evenodd" clip-rule="evenodd" d="M690.141 133.064C682.048 138.189 669.214 132.424 664.076 124.309C658.938 116.195 661.332 105.471 669.426 100.346C677.512 95.2259 693.388 94.3819 698.526 102.497C703.664 110.611 698.228 127.944 690.141 133.064Z" fill="#F0EDF2"/>
	<path fill-rule="evenodd" clip-rule="evenodd" d="M733.006 200.764C724.912 205.888 712.074 200.117 706.94 192.009C701.802 183.894 704.196 173.17 712.29 168.046C720.377 162.925 736.253 162.081 741.391 170.196C746.524 178.304 741.093 195.643 733.006 200.764Z" fill="#F0EDF2"/>
	<path fill-rule="evenodd" clip-rule="evenodd" d="M775.867 268.456C767.773 273.581 754.935 267.809 749.801 259.702C744.663 251.587 747.057 240.863 755.151 235.738C763.238 230.618 779.114 229.774 784.252 237.889C789.385 245.997 783.954 263.336 775.867 268.456Z" fill="#F0EDF2"/>
	<path fill-rule="evenodd" clip-rule="evenodd" d="M818.722 336.142C810.629 341.266 797.795 335.502 792.657 327.387C787.523 319.279 789.913 308.548 798.007 303.424C806.093 298.303 821.974 297.466 827.107 305.574C832.245 313.689 826.809 331.021 818.722 336.142Z" fill="#F0EDF2"/>
	<path fill-rule="evenodd" clip-rule="evenodd" d="M861.588 403.841C853.494 408.966 840.655 403.194 835.522 395.087C830.384 386.972 832.778 376.248 840.872 371.123C848.958 366.003 864.834 365.159 869.972 373.274C875.106 381.381 869.674 398.721 861.588 403.841Z" fill="#F0EDF2"/>
	<path fill-rule="evenodd" clip-rule="evenodd" d="M904.448 471.534C896.354 476.658 883.515 470.887 878.382 462.779C873.244 454.664 875.638 443.94 883.732 438.816C891.818 433.696 907.694 432.852 912.832 440.966C917.966 449.074 912.534 466.414 904.448 471.534Z" fill="#F0EDF2"/>
	<path fill-rule="evenodd" clip-rule="evenodd" d="M947.309 539.226C939.215 544.351 926.376 538.579 921.243 530.472C916.105 522.357 918.499 511.633 926.593 506.508C934.68 501.388 950.555 500.544 955.693 508.659C960.827 516.766 955.395 534.106 947.309 539.226Z" fill="#F0EDF2"/>
	<path fill-rule="evenodd" clip-rule="evenodd" d="M990.169 606.919C982.075 612.044 969.241 606.279 964.103 598.164C958.965 590.05 961.359 579.326 969.453 574.201C977.54 569.081 993.416 568.237 998.554 576.352C1003.69 584.466 998.256 601.799 990.169 606.919Z" fill="#F0EDF2"/>
	<path fill-rule="evenodd" clip-rule="evenodd" d="M1033.03 674.612C1024.94 679.737 1012.1 673.972 1006.96 665.857C1001.83 657.75 1004.22 647.019 1012.31 641.894C1020.4 636.774 1036.28 635.937 1041.41 644.045C1046.55 652.159 1041.12 669.492 1033.03 674.612Z" fill="#F0EDF2"/>
	<path fill-rule="evenodd" clip-rule="evenodd" d="M1075.89 742.304C1067.8 747.429 1054.96 741.657 1049.82 733.55C1044.69 725.435 1047.08 714.711 1055.17 709.586C1063.26 704.466 1079.14 703.622 1084.27 711.737C1089.41 719.844 1083.98 737.184 1075.89 742.304Z" fill="#F0EDF2"/>
	<path fill-rule="evenodd" clip-rule="evenodd" d="M585.271 104.634C577.178 109.758 564.344 103.994 559.206 95.8791C554.072 87.7715 556.462 77.0404 564.556 71.9158C572.642 66.7956 588.523 65.9587 593.656 74.0664C598.794 82.1811 593.358 99.5136 585.271 104.634Z" fill="#F0EDF2"/>
	<path fill-rule="evenodd" clip-rule="evenodd" d="M628.132 172.326C620.039 177.451 607.204 171.686 602.066 163.572C596.928 155.457 599.323 144.733 607.416 139.608C615.503 134.488 631.379 133.644 636.517 141.759C641.655 149.874 636.219 167.206 628.132 172.326Z" fill="#F0EDF2"/>
	<path fill-rule="evenodd" clip-rule="evenodd" d="M670.997 240.026C662.903 245.151 650.065 239.379 644.931 231.271C639.793 223.157 642.188 212.433 650.281 207.308C658.368 202.188 674.244 201.344 679.382 209.459C684.515 217.566 679.084 234.906 670.997 240.026Z" fill="#F0EDF2"/>
	<path fill-rule="evenodd" clip-rule="evenodd" d="M713.857 307.718C705.764 312.843 692.925 307.071 687.791 298.964C682.653 290.849 685.048 280.125 693.141 275C701.228 269.88 717.104 269.036 722.242 277.151C727.375 285.259 721.944 302.598 713.857 307.718Z" fill="#F0EDF2"/>
	<path fill-rule="evenodd" clip-rule="evenodd" d="M756.714 375.404C748.62 380.529 735.786 374.764 730.648 366.65C725.514 358.542 727.904 347.811 735.998 342.686C744.085 337.566 759.965 336.729 765.098 344.837C770.236 352.952 764.8 370.284 756.714 375.404Z" fill="#F0EDF2"/>
	<path fill-rule="evenodd" clip-rule="evenodd" d="M799.578 443.103C791.485 448.228 778.646 442.456 773.512 434.349C768.374 426.234 770.769 415.51 778.862 410.385C786.949 405.265 802.825 404.421 807.963 412.536C813.096 420.644 807.665 437.983 799.578 443.103Z" fill="#F0EDF2"/>
	<path fill-rule="evenodd" clip-rule="evenodd" d="M842.438 510.796C834.345 515.921 821.506 510.149 816.373 502.041C811.235 493.927 813.629 483.203 821.723 478.078C829.809 472.958 845.685 472.114 850.823 480.229C855.957 488.336 850.525 505.676 842.438 510.796Z" fill="#F0EDF2"/>
	<path fill-rule="evenodd" clip-rule="evenodd" d="M885.299 578.489C877.206 583.614 864.367 577.842 859.233 569.734C854.096 561.62 856.49 550.896 864.583 545.771C872.67 540.651 888.546 539.807 893.684 547.922C898.817 556.029 893.386 573.369 885.299 578.489Z" fill="#F0EDF2"/>
	<path fill-rule="evenodd" clip-rule="evenodd" d="M928.159 646.181C920.066 651.306 907.231 645.541 902.094 637.426C896.956 629.312 899.35 618.588 907.443 613.463C915.53 608.343 931.406 607.499 936.544 615.614C941.682 623.728 936.246 641.061 928.159 646.181Z" fill="#F0EDF2"/>
	<path fill-rule="evenodd" clip-rule="evenodd" d="M971.02 713.874C962.927 718.998 950.092 713.234 944.954 705.119C939.821 697.011 942.211 686.28 950.304 681.156C958.391 676.036 974.271 675.199 979.405 683.306C984.543 691.421 979.107 708.754 971.02 713.874Z" fill="#F0EDF2"/>
	<path fill-rule="evenodd" clip-rule="evenodd" d="M1013.88 781.567C1005.79 786.691 992.948 780.92 987.815 772.812C982.677 764.697 985.071 753.973 993.165 748.848C1001.25 743.728 1017.13 742.884 1022.27 750.999C1027.4 759.107 1021.97 776.446 1013.88 781.567Z" fill="#F0EDF2"/>
	<path fill-rule="evenodd" clip-rule="evenodd" d="M1056.74 849.259C1048.65 854.383 1035.81 848.619 1030.67 840.504C1025.54 832.389 1027.93 821.665 1036.02 816.541C1044.11 811.421 1059.99 810.577 1065.13 818.691C1070.26 826.806 1064.83 844.139 1056.74 849.259Z" fill="#F0EDF2"/>
	<path fill-rule="evenodd" clip-rule="evenodd" d="M523.256 143.9C515.162 149.025 502.328 143.26 497.19 135.146C492.056 127.038 494.446 116.307 502.54 111.182C510.626 106.062 526.507 105.225 531.64 113.333C536.778 121.447 531.342 138.78 523.256 143.9Z" fill="#F0EDF2"/>
	<path fill-rule="evenodd" clip-rule="evenodd" d="M566.116 211.593C558.022 216.718 545.188 210.953 540.05 202.838C534.912 194.724 537.306 183.999 545.4 178.875C553.487 173.755 569.363 172.911 574.501 181.025C579.638 189.14 574.203 206.473 566.116 211.593Z" fill="#F0EDF2"/>
	<path fill-rule="evenodd" clip-rule="evenodd" d="M608.981 279.292C600.888 284.417 588.049 278.645 582.916 270.538C577.778 262.423 580.172 251.699 588.265 246.574C596.352 241.454 612.228 240.61 617.366 248.725C622.499 256.833 617.068 274.172 608.981 279.292Z" fill="#F0EDF2"/>
	<path fill-rule="evenodd" clip-rule="evenodd" d="M651.841 346.985C643.748 352.11 630.909 346.338 625.775 338.231C620.638 330.116 623.032 319.392 631.125 314.267C639.212 309.147 655.088 308.303 660.226 316.418C665.359 324.526 659.928 341.865 651.841 346.985Z" fill="#F0EDF2"/>
	<path fill-rule="evenodd" clip-rule="evenodd" d="M694.697 414.671C686.603 419.795 673.769 414.031 668.631 405.916C663.498 397.808 665.888 387.077 673.981 381.953C682.068 376.832 697.948 375.995 703.082 384.103C708.22 392.218 702.784 409.55 694.697 414.671Z" fill="#F0EDF2"/>
	<path fill-rule="evenodd" clip-rule="evenodd" d="M737.562 482.37C729.469 487.495 716.63 481.723 711.496 473.615C706.358 465.501 708.753 454.777 716.846 449.652C724.933 444.532 740.809 443.688 745.947 451.802C751.08 459.91 745.649 477.25 737.562 482.37Z" fill="#F0EDF2"/>
	<path fill-rule="evenodd" clip-rule="evenodd" d="M780.423 550.063C772.329 555.187 759.49 549.416 754.357 541.308C749.219 533.193 751.613 522.469 759.707 517.344C767.793 512.224 783.669 511.38 788.807 519.495C793.941 527.603 788.509 544.942 780.423 550.063Z" fill="#F0EDF2"/>
	<path fill-rule="evenodd" clip-rule="evenodd" d="M823.283 617.754C815.189 622.879 802.351 617.107 797.217 609C792.079 600.885 794.474 590.161 802.567 585.036C810.654 579.916 826.53 579.072 831.668 587.187C836.801 595.295 831.37 612.634 823.283 617.754Z" fill="#F0EDF2"/>
	<path fill-rule="evenodd" clip-rule="evenodd" d="M866.143 685.448C858.05 690.572 845.215 684.808 840.078 676.693C834.94 668.578 837.334 657.854 845.427 652.73C853.514 647.61 869.39 646.766 874.528 654.88C879.666 662.995 874.23 680.328 866.143 685.448Z" fill="#F0EDF2"/>
	<path fill-rule="evenodd" clip-rule="evenodd" d="M909.003 753.14C900.91 758.264 888.075 752.5 882.937 744.385C877.804 736.277 880.194 725.546 888.287 720.422C896.374 715.302 912.254 714.465 917.388 722.572C922.526 730.687 917.09 748.02 909.003 753.14Z" fill="#F0EDF2"/>
	<path fill-rule="evenodd" clip-rule="evenodd" d="M951.864 820.833C943.771 825.957 930.932 820.186 925.799 812.078C920.661 803.963 923.055 793.239 931.148 788.115C939.235 782.994 955.111 782.15 960.249 790.265C965.382 798.373 959.951 815.712 951.864 820.833Z" fill="#F0EDF2"/>
	<path fill-rule="evenodd" clip-rule="evenodd" d="M994.725 888.525C986.631 893.65 973.797 887.885 968.659 879.771C963.521 871.656 965.915 860.932 974.009 855.807C982.095 850.687 997.971 849.843 1003.11 857.958C1008.25 866.072 1002.81 883.405 994.725 888.525Z" fill="#F0EDF2"/>
	<path fill-rule="evenodd" clip-rule="evenodd" d="M461.246 183.162C453.153 188.287 440.314 182.515 435.181 174.408C430.043 166.293 432.437 155.569 440.53 150.444C448.617 145.324 464.493 144.48 469.631 152.595C474.765 160.703 469.333 178.042 461.246 183.162Z" fill="#F0EDF2"/>
	<path fill-rule="evenodd" clip-rule="evenodd" d="M504.106 250.855C496.013 255.979 483.178 250.215 478.041 242.1C472.903 233.985 475.297 223.261 483.39 218.137C491.477 213.017 507.353 212.173 512.491 220.287C517.629 228.402 512.193 245.735 504.106 250.855Z" fill="#F0EDF2"/>
	<path fill-rule="evenodd" clip-rule="evenodd" d="M546.971 318.554C538.877 323.679 526.039 317.907 520.905 309.799C515.767 301.685 518.161 290.961 526.255 285.836C534.342 280.716 550.218 279.872 555.356 287.987C560.489 296.094 555.058 313.434 546.971 318.554Z" fill="#F0EDF2"/>
	<path fill-rule="evenodd" clip-rule="evenodd" d="M589.831 386.247C581.738 391.372 568.899 385.6 563.766 377.492C558.628 369.378 561.022 358.654 569.115 353.529C577.202 348.409 593.078 347.565 598.216 355.68C603.349 363.787 597.918 381.127 589.831 386.247Z" fill="#F0EDF2"/>
	<path fill-rule="evenodd" clip-rule="evenodd" d="M632.687 453.932C624.594 459.057 611.759 453.292 606.621 445.178C601.488 437.07 603.878 426.339 611.971 421.214C620.058 416.094 635.938 415.257 641.072 423.365C646.21 431.479 640.774 448.812 632.687 453.932Z" fill="#F0EDF2"/>
	<path fill-rule="evenodd" clip-rule="evenodd" d="M675.553 521.632C667.459 526.756 654.62 520.985 649.487 512.877C644.349 504.762 646.743 494.038 654.837 488.914C662.923 483.794 678.799 482.95 683.937 491.064C689.071 499.172 683.639 516.512 675.553 521.632Z" fill="#F0EDF2"/>
	<path fill-rule="evenodd" clip-rule="evenodd" d="M718.413 589.325C710.319 594.45 697.48 588.678 692.347 580.57C687.209 572.456 689.603 561.732 697.697 556.607C705.783 551.487 721.659 550.643 726.797 558.758C731.931 566.865 726.499 584.205 718.413 589.325Z" fill="#F0EDF2"/>
	<path fill-rule="evenodd" clip-rule="evenodd" d="M761.273 657.017C753.18 662.142 740.341 656.37 735.208 648.262C730.07 640.148 732.464 629.423 740.557 624.299C748.644 619.179 764.52 618.335 769.658 626.449C774.792 634.557 769.36 651.897 761.273 657.017Z" fill="#F0EDF2"/>
	<path fill-rule="evenodd" clip-rule="evenodd" d="M804.134 724.71C796.04 729.834 783.206 724.07 778.068 715.955C772.93 707.84 775.324 697.116 783.418 691.992C791.504 686.871 807.38 686.027 812.518 694.142C817.656 702.257 812.22 719.589 804.134 724.71Z" fill="#F0EDF2"/>
	<path fill-rule="evenodd" clip-rule="evenodd" d="M846.995 792.402C838.901 797.527 826.067 791.762 820.929 783.648C815.795 775.54 818.185 764.809 826.279 759.684C834.365 754.564 850.246 753.727 855.379 761.835C860.517 769.95 855.081 787.282 846.995 792.402Z" fill="#F0EDF2"/>
	<path fill-rule="evenodd" clip-rule="evenodd" d="M889.855 860.094C881.761 865.219 868.922 859.447 863.789 851.34C858.651 843.225 861.045 832.501 869.139 827.376C877.226 822.256 893.102 821.412 898.239 829.527C903.373 837.635 897.941 854.974 889.855 860.094Z" fill="#F0EDF2"/>
	<path fill-rule="evenodd" clip-rule="evenodd" d="M932.715 927.787C924.621 932.912 911.787 927.147 906.649 919.033C901.511 910.918 903.905 900.194 911.999 895.069C920.086 889.949 935.962 889.105 941.1 897.22C946.237 905.335 940.802 922.667 932.715 927.787Z" fill="#F0EDF2"/>
	<path fill-rule="evenodd" clip-rule="evenodd" d="M356.369 154.737C348.276 159.861 335.437 154.09 330.303 145.982C325.165 137.867 327.56 127.143 335.653 122.019C343.74 116.898 359.616 116.055 364.754 124.169C369.887 132.277 364.456 149.616 356.369 154.737Z" fill="#F0EDF2"/>
	<path fill-rule="evenodd" clip-rule="evenodd" d="M442.089 290.122C433.995 295.246 421.161 289.482 416.023 281.367C410.885 273.252 413.279 262.528 421.373 257.404C429.46 252.284 445.336 251.44 450.474 259.554C455.611 267.669 450.176 285.002 442.089 290.122Z" fill="#F0EDF2"/>
	<path fill-rule="evenodd" clip-rule="evenodd" d="M484.955 357.821C476.861 362.946 464.022 357.174 458.889 349.067C453.751 340.952 456.145 330.228 464.239 325.103C472.325 319.983 488.201 319.139 493.339 327.254C498.473 335.362 493.041 352.701 484.955 357.821Z" fill="#F0EDF2"/>
	<path fill-rule="evenodd" clip-rule="evenodd" d="M527.814 425.514C519.721 430.638 506.882 424.867 501.749 416.759C496.611 408.644 499.005 397.92 507.098 392.796C515.185 387.676 531.061 386.832 536.199 394.946C541.332 403.054 535.901 420.394 527.814 425.514Z" fill="#F0EDF2"/>
	<path fill-rule="evenodd" clip-rule="evenodd" d="M570.671 493.199C562.577 498.324 549.743 492.559 544.605 484.445C539.472 476.337 541.861 465.606 549.955 460.481C558.042 455.361 573.922 454.524 579.056 462.632C584.194 470.747 578.758 488.079 570.671 493.199Z" fill="#F0EDF2"/>
	<path fill-rule="evenodd" clip-rule="evenodd" d="M613.536 560.899C605.442 566.024 592.603 560.252 587.47 552.145C582.332 544.03 584.726 533.306 592.82 528.181C600.906 523.061 616.782 522.217 621.92 530.332C627.054 538.439 621.622 555.779 613.536 560.899Z" fill="#F0EDF2"/>
	<path fill-rule="evenodd" clip-rule="evenodd" d="M656.396 628.591C648.302 633.716 635.464 627.944 630.33 619.836C625.192 611.722 627.586 600.998 635.68 595.873C643.767 590.753 659.643 589.909 664.781 598.024C669.914 606.131 664.483 623.471 656.396 628.591Z" fill="#F0EDF2"/>
	<path fill-rule="evenodd" clip-rule="evenodd" d="M699.257 696.284C691.163 701.409 678.324 695.637 673.191 687.529C668.053 679.415 670.447 668.691 678.541 663.566C686.628 658.446 702.503 657.602 707.641 665.717C712.775 673.824 707.343 691.164 699.257 696.284Z" fill="#F0EDF2"/>
	<path fill-rule="evenodd" clip-rule="evenodd" d="M742.116 763.976C734.023 769.101 721.189 763.336 716.051 755.221C710.913 747.107 713.307 736.383 721.4 731.258C729.487 726.138 745.363 725.294 750.501 733.409C755.639 741.523 750.203 758.856 742.116 763.976Z" fill="#F0EDF2"/>
	<path fill-rule="evenodd" clip-rule="evenodd" d="M784.978 831.669C776.884 836.794 764.05 831.029 758.912 822.914C753.778 814.807 756.168 804.075 764.262 798.951C772.348 793.831 788.229 792.994 793.362 801.101C798.5 809.216 793.064 826.549 784.978 831.669Z" fill="#F0EDF2"/>
	<path fill-rule="evenodd" clip-rule="evenodd" d="M870.698 967.054C862.605 972.179 849.771 966.414 844.633 958.3C839.495 950.185 841.889 939.461 849.983 934.336C858.069 929.216 873.945 928.372 879.083 936.487C884.221 944.602 878.785 961.934 870.698 967.054Z" fill="#F0EDF2"/>
	<path fill-rule="evenodd" clip-rule="evenodd" d="M294.359 193.998C286.266 199.123 273.431 193.358 268.293 185.243C263.16 177.136 265.55 166.405 273.643 161.28C281.73 156.16 297.61 155.323 302.744 163.431C307.882 171.545 302.446 188.878 294.359 193.998Z" fill="#F0EDF2"/>
	<path fill-rule="evenodd" clip-rule="evenodd" d="M337.22 261.691C329.126 266.816 316.292 261.051 311.154 252.936C306.021 244.829 308.41 234.098 316.504 228.973C324.591 223.853 340.471 223.016 345.604 231.124C350.742 239.238 345.306 256.571 337.22 261.691Z" fill="#F0EDF2"/>
	<path fill-rule="evenodd" clip-rule="evenodd" d="M380.081 329.384C371.987 334.508 359.153 328.744 354.015 320.629C348.877 312.515 351.271 301.79 359.365 296.666C367.452 291.546 383.327 290.702 388.465 298.816C393.603 306.931 388.167 324.264 380.081 329.384Z" fill="#F0EDF2"/>
	<path fill-rule="evenodd" clip-rule="evenodd" d="M465.805 464.775C457.711 469.9 444.873 464.128 439.739 456.02C434.601 447.906 436.996 437.182 445.089 432.057C453.176 426.937 469.052 426.093 474.19 434.208C479.323 442.315 473.892 459.655 465.805 464.775Z" fill="#F0EDF2"/>
	<path fill-rule="evenodd" clip-rule="evenodd" d="M508.661 532.461C500.568 537.586 487.733 531.821 482.595 523.707C477.462 515.599 479.852 504.868 487.945 499.743C496.032 494.623 511.912 493.786 517.046 501.894C522.184 510.008 516.748 527.341 508.661 532.461Z" fill="#F0EDF2"/>
	<path fill-rule="evenodd" clip-rule="evenodd" d="M551.527 600.161C543.433 605.285 530.595 599.514 525.461 591.406C520.323 583.291 522.717 572.567 530.811 567.443C538.898 562.322 554.774 561.479 559.911 569.593C565.045 577.701 559.614 595.041 551.527 600.161Z" fill="#F0EDF2"/>
	<path fill-rule="evenodd" clip-rule="evenodd" d="M594.387 667.853C586.294 672.978 573.455 667.206 568.322 659.098C563.184 650.984 565.578 640.26 573.672 635.135C581.758 630.015 597.634 629.171 602.772 637.286C607.906 645.393 602.474 662.733 594.387 667.853Z" fill="#F0EDF2"/>
	<path fill-rule="evenodd" clip-rule="evenodd" d="M637.247 735.546C629.153 740.67 616.315 734.899 611.181 726.791C606.043 718.676 608.438 707.952 616.531 702.828C624.618 697.707 640.494 696.863 645.632 704.978C650.765 713.086 645.334 730.425 637.247 735.546Z" fill="#F0EDF2"/>
	<path fill-rule="evenodd" clip-rule="evenodd" d="M680.108 803.239C672.014 808.363 659.176 802.592 654.042 794.484C648.904 786.369 651.299 775.645 659.392 770.521C667.479 765.4 683.355 764.556 688.493 772.671C693.626 780.779 688.195 798.118 680.108 803.239Z" fill="#F0EDF2"/>
	<path fill-rule="evenodd" clip-rule="evenodd" d="M722.968 870.93C714.875 876.055 702.04 870.29 696.903 862.176C691.769 854.068 694.159 843.337 702.252 838.212C710.339 833.092 726.219 832.255 731.353 840.363C736.491 848.478 731.055 865.81 722.968 870.93Z" fill="#F0EDF2"/>
	<path fill-rule="evenodd" clip-rule="evenodd" d="M765.829 938.623C757.735 943.748 744.897 937.976 739.763 929.868C734.625 921.754 737.019 911.03 745.113 905.905C753.2 900.785 769.076 899.941 774.214 908.056C779.347 916.163 773.916 933.503 765.829 938.623Z" fill="#F0EDF2"/>
	<path fill-rule="evenodd" clip-rule="evenodd" d="M808.69 1006.32C800.596 1011.44 787.762 1005.68 782.624 997.561C777.486 989.447 779.88 978.723 787.974 973.598C796.061 968.478 811.937 967.634 817.075 975.749C822.213 983.863 816.777 1001.2 808.69 1006.32Z" fill="#F0EDF2"/>
	<path fill-rule="evenodd" clip-rule="evenodd" d="M232.344 233.265C224.25 238.39 211.416 232.625 206.278 224.51C201.144 216.403 203.534 205.672 211.628 200.547C219.714 195.427 235.595 194.59 240.728 202.698C245.866 210.812 240.43 228.145 232.344 233.265Z" fill="#F0EDF2"/>
	<path fill-rule="evenodd" clip-rule="evenodd" d="M275.203 300.957C267.11 306.082 254.275 300.317 249.137 292.203C244.004 284.095 246.394 273.364 254.487 268.239C262.574 263.119 278.454 262.282 283.588 270.39C288.726 278.505 283.29 295.837 275.203 300.957Z" fill="#F0EDF2"/>
	<path fill-rule="evenodd" clip-rule="evenodd" d="M318.064 368.65C309.971 373.774 297.137 368.01 291.999 359.895C286.861 351.78 289.255 341.056 297.349 335.932C305.435 330.811 321.311 329.967 326.449 338.082C331.587 346.197 326.151 363.529 318.064 368.65Z" fill="#F0EDF2"/>
	<path fill-rule="evenodd" clip-rule="evenodd" d="M360.929 436.35C352.836 441.474 339.997 435.703 334.864 427.595C329.726 419.48 332.12 408.756 340.213 403.632C348.3 398.511 364.176 397.667 369.314 405.782C374.447 413.89 369.016 431.229 360.929 436.35Z" fill="#F0EDF2"/>
	<path fill-rule="evenodd" clip-rule="evenodd" d="M403.789 504.042C395.695 509.166 382.857 503.395 377.723 495.287C372.585 487.172 374.98 476.448 383.073 471.324C391.16 466.204 407.036 465.36 412.174 473.474C417.307 481.582 411.876 498.922 403.789 504.042Z" fill="#F0EDF2"/>
	<path fill-rule="evenodd" clip-rule="evenodd" d="M489.51 639.427C481.416 644.552 468.578 638.78 463.444 630.672C458.306 622.558 460.701 611.834 468.794 606.709C476.881 601.589 492.757 600.745 497.895 608.86C503.028 616.967 497.597 634.307 489.51 639.427Z" fill="#F0EDF2"/>
	<path fill-rule="evenodd" clip-rule="evenodd" d="M532.37 707.12C524.277 712.244 511.438 706.473 506.305 698.365C501.167 690.25 503.561 679.526 511.655 674.402C519.741 669.281 535.617 668.437 540.755 676.552C545.889 684.66 540.457 701.999 532.37 707.12Z" fill="#F0EDF2"/>
	<path fill-rule="evenodd" clip-rule="evenodd" d="M575.231 774.812C567.137 779.937 554.299 774.165 549.165 766.058C544.027 757.943 546.422 747.219 554.515 742.094C562.602 736.974 578.478 736.13 583.616 744.245C588.749 752.353 583.318 769.692 575.231 774.812Z" fill="#F0EDF2"/>
	<path fill-rule="evenodd" clip-rule="evenodd" d="M618.092 842.505C609.999 847.63 597.164 841.865 592.026 833.75C586.888 825.636 589.283 814.912 597.376 809.787C605.463 804.667 621.339 803.823 626.477 811.938C631.615 820.052 626.179 837.385 618.092 842.505Z" fill="#F0EDF2"/>
	<path fill-rule="evenodd" clip-rule="evenodd" d="M660.952 910.197C652.858 915.322 640.024 909.557 634.886 901.443C629.753 893.335 632.143 882.604 640.236 877.479C648.323 872.359 664.203 871.522 669.337 879.63C674.475 887.744 669.039 905.077 660.952 910.197Z" fill="#F0EDF2"/>
	<path fill-rule="evenodd" clip-rule="evenodd" d="M703.812 977.89C695.719 983.015 682.88 977.243 677.747 969.135C672.609 961.021 675.003 950.297 683.096 945.172C691.183 940.052 707.059 939.208 712.197 947.323C717.33 955.43 711.899 972.77 703.812 977.89Z" fill="#F0EDF2"/>
	<path fill-rule="evenodd" clip-rule="evenodd" d="M746.673 1045.58C738.579 1050.71 725.745 1044.94 720.607 1036.83C715.469 1028.71 717.863 1017.99 725.957 1012.86C734.044 1007.74 749.92 1006.9 755.057 1015.01C760.195 1023.13 754.759 1040.46 746.673 1045.58Z" fill="#F0EDF2"/>
	<path fill-rule="evenodd" clip-rule="evenodd" d="M170.327 272.531C162.24 277.652 149.394 271.884 144.261 263.777C139.123 255.662 141.524 244.933 149.611 239.813C157.705 234.689 173.58 233.845 178.718 241.959C183.852 250.067 178.42 267.407 170.327 272.531Z" fill="#F0EDF2"/>
	<path fill-rule="evenodd" clip-rule="evenodd" d="M213.187 340.225C205.1 345.345 192.259 339.585 187.121 331.47C181.988 323.362 184.385 312.627 192.471 307.507C200.565 302.382 216.445 301.545 221.579 309.653C226.717 317.767 221.281 335.1 213.187 340.225Z" fill="#F0EDF2"/>
	<path fill-rule="evenodd" clip-rule="evenodd" d="M256.048 407.916C247.961 413.036 235.12 407.276 229.982 399.162C224.844 391.047 227.245 380.318 235.332 375.198C243.425 370.074 259.301 369.23 264.439 377.344C269.577 385.459 264.141 402.792 256.048 407.916Z" fill="#F0EDF2"/>
	<path fill-rule="evenodd" clip-rule="evenodd" d="M298.913 475.616C290.826 480.736 277.98 474.969 272.847 466.861C267.709 458.746 270.11 448.018 278.197 442.898C286.29 437.773 302.166 436.929 307.304 445.044C312.438 453.152 307.006 470.491 298.913 475.616Z" fill="#F0EDF2"/>
	<path fill-rule="evenodd" clip-rule="evenodd" d="M341.773 543.309C333.686 548.429 320.841 542.662 315.707 534.554C310.569 526.439 312.971 515.711 321.057 510.591C329.151 505.466 345.027 504.622 350.165 512.737C355.298 520.844 349.867 538.184 341.773 543.309Z" fill="#F0EDF2"/>
	<path fill-rule="evenodd" clip-rule="evenodd" d="M384.629 610.994C376.542 616.114 363.701 610.354 358.563 602.239C353.43 594.131 355.826 583.396 363.913 578.276C372.007 573.151 387.887 572.314 393.021 580.422C398.159 588.537 392.723 605.869 384.629 610.994Z" fill="#F0EDF2"/>
	<path fill-rule="evenodd" clip-rule="evenodd" d="M427.494 678.694C419.407 683.814 406.562 678.047 401.428 669.939C396.29 661.824 398.691 651.096 406.778 645.976C414.872 640.851 430.748 640.007 435.885 648.122C441.019 656.23 435.587 673.569 427.494 678.694Z" fill="#F0EDF2"/>
	<path fill-rule="evenodd" clip-rule="evenodd" d="M470.355 746.386C462.268 751.507 449.422 745.739 444.289 737.632C439.151 729.517 441.552 718.789 449.639 713.668C457.732 708.544 473.608 707.7 478.746 715.815C483.88 723.922 478.448 741.262 470.355 746.386Z" fill="#F0EDF2"/>
	<path fill-rule="evenodd" clip-rule="evenodd" d="M513.215 814.079C505.128 819.199 492.282 813.432 487.149 805.324C482.011 797.209 484.412 786.481 492.499 781.361C500.593 776.236 516.469 775.392 521.606 783.507C526.74 791.615 521.308 808.954 513.215 814.079Z" fill="#F0EDF2"/>
	<path fill-rule="evenodd" clip-rule="evenodd" d="M556.076 881.771C547.989 886.891 535.148 881.131 530.01 873.016C524.872 864.902 527.273 854.173 535.36 849.053C543.453 843.928 559.329 843.084 564.467 851.199C569.605 859.314 564.169 876.646 556.076 881.771Z" fill="#F0EDF2"/>
	<path fill-rule="evenodd" clip-rule="evenodd" d="M641.796 1017.16C633.709 1022.28 620.864 1016.51 615.73 1008.4C610.592 1000.29 612.993 989.559 621.08 984.438C629.174 979.314 645.05 978.47 650.188 986.585C655.321 994.692 649.89 1012.03 641.796 1017.16Z" fill="#F0EDF2"/>
	<path fill-rule="evenodd" clip-rule="evenodd" d="M684.657 1084.85C676.57 1089.97 663.729 1084.21 658.591 1076.09C653.453 1067.98 655.854 1057.25 663.941 1052.13C672.034 1047.01 687.91 1046.16 693.048 1054.28C698.186 1062.39 692.75 1079.72 684.657 1084.85Z" fill="#F0EDF2"/>
	<path fill-rule="evenodd" clip-rule="evenodd" d="M108.31 311.798C100.224 316.919 87.378 311.151 82.2445 303.044C77.1066 294.929 79.5077 284.201 87.5944 279.08C95.6881 273.956 111.564 273.112 116.702 281.226C121.835 289.334 116.404 306.674 108.31 311.798Z" fill="#F0EDF2"/>
	<path fill-rule="evenodd" clip-rule="evenodd" d="M151.171 379.49C143.084 384.611 130.243 378.85 125.105 370.736C119.972 362.628 122.368 351.893 130.455 346.772C138.549 341.648 154.429 340.811 159.562 348.918C164.7 357.033 159.265 374.366 151.171 379.49Z" fill="#F0EDF2"/>
	<path fill-rule="evenodd" clip-rule="evenodd" d="M194.031 447.183C185.944 452.303 173.103 446.543 167.965 438.428C162.827 430.314 165.229 419.585 173.315 414.465C181.409 409.34 197.285 408.497 202.423 416.611C207.561 424.726 202.125 442.059 194.031 447.183Z" fill="#F0EDF2"/>
	<path fill-rule="evenodd" clip-rule="evenodd" d="M236.896 514.883C228.809 520.003 215.964 514.236 210.83 506.128C205.692 498.014 208.094 487.285 216.18 482.165C224.274 477.04 240.15 476.196 245.288 484.311C250.421 492.419 244.99 509.758 236.896 514.883Z" fill="#F0EDF2"/>
	<path fill-rule="evenodd" clip-rule="evenodd" d="M279.757 582.576C271.67 587.696 258.824 581.929 253.691 573.821C248.553 565.706 250.954 554.978 259.041 549.858C267.134 544.733 283.01 543.889 288.148 552.004C293.282 560.111 287.85 577.451 279.757 582.576Z" fill="#F0EDF2"/>
	<path fill-rule="evenodd" clip-rule="evenodd" d="M322.613 650.261C314.526 655.381 301.685 649.621 296.547 641.506C291.414 633.399 293.81 622.663 301.897 617.543C309.991 612.418 325.871 611.581 331.005 619.689C336.143 627.804 330.707 645.136 322.613 650.261Z" fill="#F0EDF2"/>
	<path fill-rule="evenodd" clip-rule="evenodd" d="M408.338 785.652C400.251 790.773 387.405 785.005 382.272 776.898C377.134 768.783 379.535 758.055 387.622 752.934C395.715 747.81 411.591 746.966 416.729 755.081C421.863 763.188 416.431 780.528 408.338 785.652Z" fill="#F0EDF2"/>
	<path fill-rule="evenodd" clip-rule="evenodd" d="M451.199 853.345C443.112 858.466 430.266 852.698 425.133 844.591C419.995 836.476 422.396 825.748 430.483 820.627C438.576 815.503 454.452 814.659 459.59 822.774C464.724 830.881 459.292 848.221 451.199 853.345Z" fill="#F0EDF2"/>
	<path fill-rule="evenodd" clip-rule="evenodd" d="M494.059 921.038C485.973 926.158 473.131 920.398 467.993 912.283C462.856 904.169 465.257 893.44 473.343 888.32C481.437 883.195 497.313 882.352 502.451 890.466C507.589 898.581 502.153 915.914 494.059 921.038Z" fill="#F0EDF2"/>
	<path fill-rule="evenodd" clip-rule="evenodd" d="M536.919 988.731C528.832 993.851 515.991 988.091 510.853 979.976C505.72 971.868 508.116 961.133 516.203 956.012C524.297 950.888 540.177 950.051 545.311 958.159C550.449 966.273 545.013 983.606 536.919 988.731Z" fill="#F0EDF2"/>
	<path fill-rule="evenodd" clip-rule="evenodd" d="M579.78 1056.42C571.693 1061.54 558.848 1055.78 553.714 1047.67C548.576 1039.55 550.977 1028.83 559.064 1023.7C567.158 1018.58 583.034 1017.74 588.172 1025.85C593.305 1033.96 587.874 1051.3 579.78 1056.42Z" fill="#F0EDF2"/>
	<path fill-rule="evenodd" clip-rule="evenodd" d="M622.64 1124.12C614.554 1129.24 601.712 1123.48 596.574 1115.36C591.437 1107.25 593.838 1096.52 601.924 1091.4C610.018 1086.27 625.894 1085.43 631.032 1093.54C636.17 1101.66 630.734 1118.99 622.64 1124.12Z" fill="#F0EDF2"/>
	<path fill-rule="evenodd" clip-rule="evenodd" d="M46.3008 351.06C38.2142 356.18 25.3685 350.413 20.235 342.306C15.0971 334.191 17.4983 323.462 25.5849 318.342C33.6786 313.218 49.5545 312.374 54.6925 320.488C59.826 328.596 54.3945 345.936 46.3008 351.06Z" fill="#F0EDF2"/>
	<path fill-rule="evenodd" clip-rule="evenodd" d="M89.1616 418.753C81.0749 423.873 68.2337 418.113 63.0958 409.998C57.9623 401.89 60.3591 391.155 68.4457 386.035C76.5394 380.91 92.4198 380.073 97.5532 388.181C102.691 396.295 97.2553 413.628 89.1616 418.753Z" fill="#F0EDF2"/>
	<path fill-rule="evenodd" clip-rule="evenodd" d="M132.022 486.445C123.935 491.565 111.094 485.805 105.956 477.69C100.818 469.575 103.219 458.847 111.306 453.727C119.4 448.602 135.275 447.758 140.413 455.873C145.551 463.988 140.115 481.32 132.022 486.445Z" fill="#F0EDF2"/>
	<path fill-rule="evenodd" clip-rule="evenodd" d="M174.882 554.138C166.796 559.258 153.95 553.491 148.817 545.384C143.679 537.269 146.08 526.54 154.167 521.42C162.26 516.296 178.136 515.452 183.274 523.566C188.408 531.674 182.976 549.014 174.882 554.138Z" fill="#F0EDF2"/>
	<path fill-rule="evenodd" clip-rule="evenodd" d="M217.747 621.837C209.66 626.958 196.814 621.19 191.681 613.083C186.543 604.968 188.944 594.24 197.031 589.119C205.124 583.995 221 583.151 226.138 591.266C231.272 599.373 225.84 616.713 217.747 621.837Z" fill="#F0EDF2"/>
	<path fill-rule="evenodd" clip-rule="evenodd" d="M260.603 689.523C252.517 694.643 239.675 688.883 234.538 680.768C229.404 672.661 231.801 661.925 239.887 656.805C247.981 651.68 263.861 650.843 268.995 658.951C274.133 667.066 268.697 684.398 260.603 689.523Z" fill="#F0EDF2"/>
	<path fill-rule="evenodd" clip-rule="evenodd" d="M303.468 757.222C295.381 762.342 282.536 756.575 277.402 748.468C272.264 740.353 274.666 729.624 282.752 724.504C290.846 719.38 306.722 718.536 311.86 726.65C316.993 734.758 311.562 752.098 303.468 757.222Z" fill="#F0EDF2"/>
	<path fill-rule="evenodd" clip-rule="evenodd" d="M389.189 892.607C381.102 897.728 368.257 891.96 363.123 883.853C357.985 875.738 360.387 865.01 368.473 859.889C376.567 854.765 392.443 853.921 397.581 862.036C402.714 870.143 397.283 887.483 389.189 892.607Z" fill="#F0EDF2"/>
	<path fill-rule="evenodd" clip-rule="evenodd" d="M432.05 960.3C423.963 965.42 411.117 959.653 405.984 951.545C400.846 943.431 403.247 932.702 411.334 927.582C419.427 922.457 435.303 921.614 440.441 929.728C445.575 937.836 440.143 955.176 432.05 960.3Z" fill="#F0EDF2"/>
	<path fill-rule="evenodd" clip-rule="evenodd" d="M474.91 1027.99C466.823 1033.11 453.982 1027.35 448.844 1019.24C443.71 1011.13 446.107 1000.39 454.194 995.274C462.287 990.15 478.168 989.313 483.301 997.42C488.439 1005.54 483.003 1022.87 474.91 1027.99Z" fill="#F0EDF2"/>
	<path fill-rule="evenodd" clip-rule="evenodd" d="M517.771 1095.69C509.684 1100.81 496.838 1095.04 491.705 1086.93C486.567 1078.82 488.968 1068.09 497.055 1062.97C505.148 1057.84 521.024 1057 526.162 1065.11C531.296 1073.22 525.864 1090.56 517.771 1095.69Z" fill="#F0EDF2"/>
	<path fill-rule="evenodd" clip-rule="evenodd" d="M560.631 1163.38C552.544 1168.5 539.703 1162.74 534.565 1154.62C529.427 1146.51 531.829 1135.78 539.915 1130.66C548.009 1125.54 563.885 1124.69 569.023 1132.81C574.161 1140.92 568.725 1158.25 560.631 1163.38Z" fill="#F0EDF2"/>
	</g>
</svg>
